# xmcd
#
# Track frame offsets:
#	150
#	17286
#	32606
#	51871
#	68903
#	87009
#	110139
#	128641
#	142977
#	164977
#	181331
#	211951
#
# Disc length: 3012 seconds
#
# Revision: 1
# Processed by: cddbd v1.5.2PL0 Copyright (c) Steve Scherf et al.
# Submitted via: audiograbber 1.83.01
#
DISCID=a20bc20c
DTITLE=The Twang - Wüste Lieder
DYEAR=2017
DGENRE=Deutsch Country
TTITLE0=The Twang mit Jon Flemming Olsen - Augenbling
TTITLE1=The Twang - Remmidemmi
TTITLE2=The Twang - Was dich so verändert hat
TTITLE3=The Twang - Griechischer Wein
TTITLE4=The Twang - Mi 18
TTITLE5=The Twang - Die Welt kann mich nicht mehr verstehen
TTITLE6=The Twang - Emanuela
TTITLE7=The Twang - Keine Macht für niemand
TTITLE8=The Twang mit Johnny Falstaff - Sie ist weg
TTITLE9=The Twang - Ohne dich (schlaf ich heut Nacht nicht ein)
TTITLE10=The Twang - Der goldene Reiter
TTITLE11=The Twang mit Bela B - Er gehört zu mir
EXTD=YEAR: 2017
EXTT0=
EXTT1=
EXTT2=
EXTT3=
EXTT4=
EXTT5=
EXTT6=
EXTT7=
EXTT8=
EXTT9=
EXTT10=
EXTT11=
PLAYORDER=
